<svg width="277" height="113" viewBox="0 0 277 113" fill="none" xmlns="http://www.w3.org/2000/svg">
<mask id="mask0_3_1029" style="mask-type:luminance" maskUnits="userSpaceOnUse" x="0" y="1" width="139" height="111">
<path d="M138.823 1.31396H0V111.686H138.823V1.31396Z" fill="white"/>
</mask>
<g mask="url(#mask0_3_1029)">
<path d="M38.2711 7.17192C41.7744 7.17192 45.2064 7.7832 48.472 8.98812C51.629 10.1521 54.5708 11.8472 57.2131 14.0247L60.6975 16.8954L64.1784 14.0169C67.3334 11.4078 71.1341 10.029 75.1687 10.029C83.2438 10.029 90.297 15.7178 92.3178 23.8614L93.5998 29.0209L98.6432 28.1774C100.215 27.9138 101.819 27.7808 103.408 27.7808C111.368 27.7808 118.852 31.0168 124.481 36.8891C130.11 42.7636 133.209 50.5732 133.209 58.8808C133.209 67.1884 130.108 74.9983 124.481 80.8724C118.854 86.7468 111.368 89.9807 103.408 89.9807C102.472 89.9807 101.512 89.9319 100.556 89.8383L97.9769 89.5824L96.1167 91.4631C86.9659 100.724 74.9068 105.825 62.1611 105.825C49.415 105.825 37.6667 100.853 28.5645 91.8263L27.0113 90.2853L24.8685 90.217C19.6923 90.0512 14.8492 87.8227 11.2338 83.9384C7.61083 80.0465 5.61408 74.9142 5.61408 69.487C5.61408 65.0579 6.93338 60.8317 9.42978 57.2659L11.3068 54.5865L10.0679 51.5282C8.47539 47.5971 7.66882 43.4176 7.66882 39.1058C7.66882 30.5756 10.852 22.5549 16.6326 16.5244C22.4133 10.4919 30.0971 7.17192 38.2711 7.17192ZM38.2711 1.31128C18.2701 1.31323 2.05475 18.2351 2.05475 39.1076C2.05475 44.324 3.06717 49.2921 4.89736 53.811C1.81896 58.2091 0 63.6265 0 69.4891C0 83.9034 10.9868 95.6384 24.6963 96.0759C34.4517 105.748 47.641 111.685 62.1611 111.685C76.6809 111.685 90.2312 105.583 100.024 95.6715C101.138 95.7808 102.266 95.8394 103.406 95.8394C122.965 95.8394 138.823 79.2925 138.823 58.8789C138.823 38.4651 122.967 21.9183 103.406 21.9183C101.482 21.9183 99.5938 22.0804 97.7523 22.3889C95.1513 11.9077 86.0264 4.16838 75.1687 4.16838C69.6987 4.16838 64.6704 6.13298 60.692 9.42362C54.5259 4.34608 46.7372 1.31128 38.2711 1.31128Z" fill="black"/>
<path fill-rule="evenodd" clip-rule="evenodd" d="M36.9327 52.8631C40.2449 52.8631 43.3287 51.8437 45.9121 50.0893L59.2478 67.3594C57.3355 69.5153 56.1666 72.4 56.1666 75.5692C56.1666 82.2457 61.3528 87.6579 67.7505 87.6579C74.1479 87.6579 79.3341 82.2457 79.3341 75.5692C79.3341 73.314 78.7421 71.2027 77.7117 69.3958L93.0046 56.442C94.7935 58.0881 97.1425 59.0868 99.715 59.0868C105.321 59.0868 109.865 54.3444 109.865 48.4942C109.865 42.6442 105.321 37.9016 99.715 37.9016C94.1093 37.9016 89.5647 42.6442 89.5647 48.4942C89.5647 50.3921 90.0429 52.1733 90.8805 53.7137L75.5876 66.6675C73.5249 64.6889 70.7728 63.4809 67.7505 63.4809C65.6037 63.4809 63.5932 64.0903 61.8695 65.1525L48.5337 47.8821C51.5495 44.7644 53.4175 40.4399 53.4175 35.66C53.4175 26.1589 46.0372 18.4568 36.9327 18.4568C27.8285 18.4568 20.448 26.1589 20.448 35.66C20.448 45.1609 27.8285 52.8631 36.9327 52.8631Z" fill="black"/>
</g>
<path d="M152.204 53.6917L155.385 32.6716H148.086L148.983 26.7717H170.697L169.799 32.6716H162.536L159.354 53.6917H152.204Z" fill="black"/>
<path d="M178.576 39.9016L176.479 53.6937H169.702L173.894 26.3062H180.52L179.022 35.7598C180.744 34.5486 181.98 34.315 183.252 34.315C186.995 34.315 189.691 36.4646 188.755 42.5203L187.07 53.6937H180.144L181.679 43.5739C182.054 41.1906 182.166 39.1987 180.295 39.1987C179.808 39.1987 179.059 39.5119 178.572 39.9016H178.576Z" fill="black"/>
<path d="M190.292 53.6919L193.197 34.3926H200.075L197.171 53.6919H190.292Z" fill="black"/>
<path d="M201.105 28.5513C201.412 26.6771 200.915 25.2422 197.973 25.2422C195.03 25.2422 194.189 26.6771 193.884 28.5513C193.577 30.4253 194.227 31.8601 196.979 31.8601C199.731 31.8601 200.801 30.4253 201.105 28.5513Z" fill="black"/>
<path d="M220.993 43.1651L219.388 53.6922H212.205L213.772 43.3638C214.269 39.8939 213.581 39.0572 212.09 39.0572C211.441 39.0572 210.447 39.4566 209.721 39.9336L207.657 53.6904H200.702L203.606 34.3908H210.102L210.14 35.9867C211.898 34.5119 213.732 33.9138 215.375 33.9138C217.859 33.9138 222.216 35.11 220.993 43.1651Z" fill="black"/>
<path d="M233.649 53.6917C232.923 52.0164 231.242 48.8664 229.674 47.1511L228.718 53.6917H221.802L225.789 26.6035H232.705L230.895 39.2156C232.615 37.9398 234.487 35.7457 235.213 34.3903H242.548C240.217 37.58 237.543 40.6505 234.409 42.8842C236.892 45.5951 239.682 49.9414 241.402 53.6896H233.645L233.649 53.6917Z" fill="black"/>
<path d="M260.982 86.5957C258.688 86.5957 253.19 84.8862 254.427 76.7526C255.336 70.7483 260.035 67.3278 264.077 67.3278C265.389 67.3278 267.063 67.8216 268.01 68.7338L269.466 59.196H276.093L272.888 80.3633C272.777 81.1228 273.034 81.3903 273.361 81.3903C273.688 81.3903 274.016 81.3527 275.147 80.9344L274.489 85.2291C273.361 85.7983 271.467 86.5972 269.828 86.5972C268.481 86.5972 267.134 85.4573 266.842 84.3548C264.948 86.1791 262.765 86.5972 260.979 86.5972L260.982 86.5957ZM263.533 81.4657C264.626 81.4657 265.608 81.1246 266.189 80.7063L267.355 72.9531C266.809 72.5348 265.935 72.2691 265.205 72.2691C262.802 72.2691 261.09 74.6247 260.727 76.9052C260.327 79.4136 261.49 81.4657 263.533 81.4657Z" fill="black"/>
<path d="M251.405 75.8977L249.851 86.0866H242.898L244.415 76.0893C244.895 72.7318 244.23 71.9204 242.788 71.9204C242.159 71.9204 241.198 72.3069 240.495 72.7684L238.498 86.085H231.766L234.576 67.403H240.864L240.901 68.9477C242.603 67.5197 244.376 66.9399 245.968 66.9399C248.373 66.9399 252.589 68.0978 251.405 75.894V75.8977Z" fill="black"/>
<path d="M221.329 66.9399C226.083 66.9399 231.283 69.3043 230.132 76.7476C229.13 83.2989 224.077 86.5554 218.357 86.5938C213.789 86.711 208.403 83.8794 209.48 76.8648C210.558 69.7712 216.685 66.8629 221.329 66.9399ZM220.511 72.1724C218.468 72.1724 216.536 74.189 216.127 76.7073C215.681 79.4217 217.092 81.3593 219.135 81.3593C221.178 81.3593 223.147 79.5371 223.556 76.7073C223.965 74.0332 222.554 72.1724 220.511 72.1724Z" fill="black"/>
<path d="M191.267 66.9399H198.681L200.178 77.177L204.708 66.9399H212.123L199.842 89.6427C198.081 93.3147 196.096 93.9017 192.427 93.8242H189.282L190.069 88.7453H192.839C193.252 88.7453 193.664 88.1989 193.888 87.6505L195.612 84.3293L191.267 66.9399Z" fill="black"/>
<path d="M172.243 76.6863C173.173 70.5123 178.086 66.9399 182.96 66.9399C188.727 66.9399 191.556 70.7838 190.552 76.9599L190.254 78.668H179.016C178.942 79.9891 179.76 81.6588 182.513 81.6588C183.853 81.6588 187.202 81.1543 188.802 80.7267L188.169 85.2696C185.416 86.0072 183.109 86.5909 180.206 86.6293C174.847 86.6293 171.201 83.5596 172.243 76.6863ZM183.965 75.0168C184.225 73.8516 184.078 72.026 182.179 72.026C180.28 72.026 179.5 73.8902 179.389 75.0168H183.965Z" fill="black"/>
<path d="M165.559 72.3064C168.338 72.7644 169.51 75.5135 169.107 78.1469C168.265 83.7204 164.205 86.0868 158.754 86.0868H147.523L151.51 59.7849H163.142C165.629 59.7849 170.531 61.235 169.581 67.5338C169.361 68.8704 168.265 71.6192 165.559 72.3064ZM156.194 75.4756L155.427 80.3998H159.597C160.731 80.3998 161.718 79.5213 161.976 78.0331C162.268 76.1247 161.207 75.4756 160.33 75.4756H156.194ZM160.109 70.398C161.499 70.398 162.268 69.2149 162.487 67.8783C162.707 66.5037 162.048 65.4738 160.842 65.4738H157.696L156.965 70.398H160.109Z" fill="black"/>
</svg>
